<svg xmlns="http://www.w3.org/2000/svg" width="285.71" height="224.545" viewBox="0 0 285.71 224.545"><defs><style>.a{fill:#fcc033;}.b{fill:#fff;}</style></defs><g transform="translate(-490.616 -41.545)"><g transform="translate(490.616 198.916)"><g transform="translate(240.669 42.352)"><rect class="a" width="45.041" height="24.822"/><g transform="translate(9.811 6.354)"><path class="b" d="M814.307,306.847a3.548,3.548,0,0,1,1.42,1.316,3.692,3.692,0,0,1,.522,1.969,3.9,3.9,0,0,1-.571,2.115,3.786,3.786,0,0,1-1.56,1.4,4.866,4.866,0,0,1-2.2.49,4.732,4.732,0,0,1-3.756-1.548,6.5,6.5,0,0,1-1.355-4.42,7.738,7.738,0,0,1,.734-3.508,5.149,5.149,0,0,1,2.05-2.219,5.994,5.994,0,0,1,3.045-.757,7.107,7.107,0,0,1,1.756.215,4.614,4.614,0,0,1,1.429.611l-.981,2.047a3.61,3.61,0,0,0-2.139-.6,3.027,3.027,0,0,0-2.3.894,3.858,3.858,0,0,0-.914,2.6,3.709,3.709,0,0,1,2.825-1.066A4.276,4.276,0,0,1,814.307,306.847Zm-1.152,4.729a1.675,1.675,0,0,0,.531-1.306,1.705,1.705,0,0,0-.531-1.316,2,2,0,0,0-1.412-.49,2.024,2.024,0,0,0-1.421.507,1.805,1.805,0,0,0-.017,2.589,2.081,2.081,0,0,0,1.47.5A1.972,1.972,0,0,0,813.156,311.576Z" transform="translate(-806.811 -301.687)"/><path class="b" d="M820.915,315.963a1.68,1.68,0,0,1-.458-1.2,1.615,1.615,0,0,1,.458-1.2,1.621,1.621,0,0,1,2.253,0,1.615,1.615,0,0,1,.458,1.2,1.68,1.68,0,0,1-.458,1.2,1.558,1.558,0,0,1-2.253,0Z" transform="translate(-809.647 -304.061)"/><path class="b" d="M828.474,313.4a4.9,4.9,0,0,1-1.739-2.141,9.211,9.211,0,0,1,0-6.691,4.9,4.9,0,0,1,1.739-2.141,4.7,4.7,0,0,1,5.063,0,4.893,4.893,0,0,1,1.739,2.141,9.211,9.211,0,0,1,0,6.691,4.893,4.893,0,0,1-1.739,2.141,4.7,4.7,0,0,1-5.063,0Zm4.172-2.563a7.464,7.464,0,0,0,0-5.848,1.883,1.883,0,0,0-3.266,0,7.474,7.474,0,0,0,0,5.848,1.883,1.883,0,0,0,3.266,0Z" transform="translate(-810.821 -301.687)"/></g></g><path class="b" d="M515.946,265.042h-17.93l-3.86,9.054h-3.54L505.327,240.2h3.356L523.393,274.1h-3.585Zm-1.241-2.9-7.723-18.2-7.724,18.2Z" transform="translate(-490.616 -240.203)"/><path class="b" d="M565.444,259.5a8.6,8.6,0,0,1,1.724,5.544,7.952,7.952,0,0,1-3.057,6.706q-3.057,2.349-9.032,2.348h-14.8V240.2h13.884q5.378,0,8.345,2.276a7.645,7.645,0,0,1,2.965,6.44,8.4,8.4,0,0,1-1.311,4.77,7.922,7.922,0,0,1-3.608,2.929A8.44,8.44,0,0,1,565.444,259.5Zm-21.768-16.341v12.3h10.253a9.941,9.941,0,0,0,6.021-1.573,6.007,6.007,0,0,0,0-9.15,9.94,9.94,0,0,0-6.021-1.574Zm17.884,26.436a5.505,5.505,0,0,0,2.206-4.842q0-6.342-8.734-6.342H543.676v12.733h11.356Q559.352,271.142,561.56,269.593Z" transform="translate(-500.936 -240.203)"/><path class="b" d="M613.112,240.2V274.1h-3.356V258.457H589.62V274.1h-3.4V240.2h3.4V255.31h20.136V240.2Z" transform="translate(-510.485 -240.203)"/><path class="b" d="M647,262.378V274.1h-3.356V262.378L630.77,240.2H634.4l11.033,19.029L656.469,240.2h3.4Z" transform="translate(-519.744 -240.203)"/><path class="b" d="M681.892,270.61q-3.5-3.776-3.494-10.991V240.2h3.4v19.27q0,5.908,2.529,8.812t7.309,2.9q4.827,0,7.355-2.9t2.529-8.812V240.2h3.31v19.416q0,7.214-3.471,10.991t-9.722,3.777Q685.385,274.387,681.892,270.61Z" transform="translate(-529.643 -240.203)"/><path class="b" d="M721.876,240.2h13.1a18.367,18.367,0,0,1,9.01,2.155,15.285,15.285,0,0,1,6.068,6,18.946,18.946,0,0,1,0,17.574,15.28,15.28,0,0,1-6.068,6,18.358,18.358,0,0,1-9.01,2.154h-13.1ZM734.794,271a14.955,14.955,0,0,0,7.4-1.767,12.478,12.478,0,0,0,4.918-4.89,15.666,15.666,0,0,0,0-14.38,12.483,12.483,0,0,0-4.918-4.89,14.964,14.964,0,0,0-7.4-1.767h-9.516V271Z" transform="translate(-538.679 -240.203)"/><path class="b" d="M791.613,265.042H773.684l-3.861,9.054h-3.54L780.994,240.2h3.356L799.06,274.1h-3.585Zm-1.241-2.9-7.723-18.2-7.724,18.2Z" transform="translate(-547.908 -240.203)"/><path class="b" d="M830.777,262.378V274.1h-3.356V262.378L814.549,240.2h3.631l11.033,19.029L840.247,240.2h3.4Z" transform="translate(-557.939 -240.203)"/></g><g transform="translate(569.757 41.545)"><path class="a" d="M688.228,130.289c-.117.4-.244.8-.38,1.212H671.567l.566-.6-.585-.616-6.819-7.181L656.76,131.5H641.026c-.137-.4-.253-.811-.361-1.212-4.712-16.613,5.872-32.218,22.328-33.482C679.371,95.564,693.554,111.992,688.228,130.289Z" transform="translate(-600.708 -53.016)"/><path class="b" d="M674.1,81.322a44.382,44.382,0,0,0-13.979-2.285c-9.571-.145-18.828,3.951-26.061,11.508a42.908,42.908,0,0,0-9,14.368,2.386,2.386,0,0,0-1.633,2.9,2.25,2.25,0,0,0,4.446-.6,2.416,2.416,0,0,0-.41-1.35,39.784,39.784,0,0,1,8.4-13.4c6.74-7.038,15.344-10.85,24.215-10.724a41.923,41.923,0,0,1,13.154,2.143,1.381,1.381,0,0,0,1.328-.284,1.476,1.476,0,0,0,.262-1.6A1.252,1.252,0,0,0,674.1,81.322Z" transform="translate(-597.344 -49.336)"/><path class="b" d="M716.971,120.49c0-.015,0-.042-.006-.062a71.185,71.185,0,0,0,.983-11.779c0-37-28.582-67.1-63.715-67.1s-63.714,30.1-63.714,67.1a70.749,70.749,0,0,0,.978,11.72,1.057,1.057,0,0,0-.008.12,1.32,1.32,0,0,0,.12.543,67.758,67.758,0,0,0,18.316,35.786,61.332,61.332,0,0,0,89.148-.553,67.008,67.008,0,0,0,13.554-20.8,1.338,1.338,0,0,0,.435-.993c0-.021,0-.048,0-.077a68.559,68.559,0,0,0,3.8-13.377A1.346,1.346,0,0,0,716.971,120.49Zm-3.069,1.353a65.6,65.6,0,0,1-3.118,10.826v0c-.052.139-.108.279-.169.433l-33.395-.3-10.407-10.96ZM655.866,165.8,663.277,158c.013-.017.026-.033.038-.05l10.907,11.488a57.643,57.643,0,0,1-12.025,3.03Zm-6.673,7.029,4.862-5.121,4.867,5.126A57.652,57.652,0,0,1,649.193,172.828ZM617.454,147.99l-6.238,6.572-.068-.069a64.077,64.077,0,0,1-5.466-6.5ZM629.7,135.081l-9.687,10.209H603.791c-.063-.092-.123-.186-.184-.28l-.143-.219a65.334,65.334,0,0,1-5.281-9.984Zm16.2,37.391a57.111,57.111,0,0,1-11.3-2.776l19.936-21,6.965,7.348c-.024.02-.048.041-.071.063Zm8.254-27.183h-.006l-1.538,1.625-20.676,21.772a59.621,59.621,0,0,1-8.724-4.449l31.815-33.515,6.481,6.825Zm47.765-52.538a2.43,2.43,0,0,0,.089-2.438,2.258,2.258,0,0,0-1.461-1.174,2.3,2.3,0,0,0-2.772,2.322,2.357,2.357,0,0,0,1.771,2.312c2.638,7.47,3.512,15.544,2.746,25.368h-9.956a38.458,38.458,0,0,0-3.329-24.869c-3.47-7.236-8.025-12.823-13.542-16.607a2.247,2.247,0,0,0-4.451-.433,2.358,2.358,0,0,0,2.193,2.951,2.094,2.094,0,0,0,.881-.2c5.142,3.528,9.394,8.742,12.638,15.5a35.689,35.689,0,0,1,2.976,23.657H664.251l-8.8-9.265a1.244,1.244,0,0,0-.911-.4h0a1.226,1.226,0,0,0-.9.4l-8.8,9.266H618.382a31.794,31.794,0,0,1-.3-5.329,41.4,41.4,0,0,1,.461-4.915l.254-1.661a1.373,1.373,0,0,0-.234-1,1.269,1.269,0,0,0-.86-.539,1.139,1.139,0,0,0-.167-.01,1.32,1.32,0,0,0-1.275,1.155c-.067.468-.141.929-.216,1.4l-.01.067a34.6,34.6,0,0,0-.463,5.372,42.562,42.562,0,0,0,.216,5.464H606.15a47.2,47.2,0,0,1,.269-16.769,55.967,55.967,0,0,1,13.23-26.657,2.108,2.108,0,0,0,.4.04,2.36,2.36,0,0,0,2.2-2.945,2.254,2.254,0,0,0-4.462.563,2.5,2.5,0,0,0,.04.443,58.524,58.524,0,0,0-13.911,27.991,49.611,49.611,0,0,0-.37,17.333h-9.832c-.013-.086-.025-.172-.038-.257l-.017-.117a68.128,68.128,0,0,1-.753-10.12c0-35.513,27.43-64.405,61.145-64.405S715.2,73.137,715.2,108.65a68.215,68.215,0,0,1-.758,10.12l-.01.071c-.015.1-.029.2-.044.3H704.87C705.648,108.984,704.71,100.584,701.925,92.753Zm-52.275,39.8-1.735,1.843-26.954,28.38a61.7,61.7,0,0,1-7.871-6.369l21.266-22.4,0,0,.578-.616,19.6-20.653,6.972,7.343-11.849,12.474ZM594.2,121.843h48.066l-10.024,10.564-35.138-.314c-.031-.085-.062-.17-.092-.255l-.069-.192h0A65.521,65.521,0,0,1,594.2,121.843Zm62.762,25.594-.094-.093-.52-.551,6.974-7.337,5.537,5.834h0l2.471,2.6,0,0h0l14.768,15.56a58.456,58.456,0,0,1-9.235,4.936Zm31.162,14.319-13.6-14.319-.094-.094-17.593-18.528,6.486-6.825,22.119,23.3h0l2.471,2.6,0,0h0l7.607,8.014a61.468,61.468,0,0,1-7.244,6.067A1.191,1.191,0,0,0,688.127,161.757ZM709.486,135.8a64.37,64.37,0,0,1-4.853,8.994l-.139.212c-.062.1-.124.193-.188.288H689.063l-9.251-9.756Zm-7.059,12.194a61.86,61.86,0,0,1-4.938,5.928l-.078.083-.039.041-5.746-6.052Z" transform="translate(-590.52 -41.545)"/><path class="b" d="M674.894,63.607a48.828,48.828,0,0,0-38.929,6.782q-.346.232-.684.468a1.326,1.326,0,0,0-.549.875,1.448,1.448,0,0,0,.246,1.067,1.209,1.209,0,0,0,1.714.322q.328-.228.657-.45a46.354,46.354,0,0,1,36.982-6.429,45.506,45.506,0,0,1,30.8,23.645,1.26,1.26,0,0,0,1.1.689,1.2,1.2,0,0,0,.563-.143,1.383,1.383,0,0,0,.573-1.866A47.967,47.967,0,0,0,674.894,63.607Z" transform="translate(-599.705 -45.836)"/></g></g></svg>