<svg xmlns="http://www.w3.org/2000/svg" xmlns:xlink="http://www.w3.org/1999/xlink" width="1920" height="1081" viewBox="0 0 1920 1081">
    <defs>
        <style>
            .a {
                fill: #fff;
            }

            .b {
                clip-path: url(#a);
            }

            .c,
            .e {
                fill: #13293d;
            }

            .d {
                fill: #ffb20f;
            }

            .e {
                font-size: 100px;
                font-family: Montserrat-Regular, Montserrat;
            }
        </style>
        <clipPath id="a">
            <rect class="a" width="1920" height="1081" transform="translate(0 1075)" />
        </clipPath>
    </defs>
    <g class="b" transform="translate(0 -1075)">
        <g transform="translate(1068.894 1234.612)">
            <rect class="c" width="5.423" height="167.018" transform="translate(244.049 276.96)" />
            <rect class="c" width="5.423" height="10.845" transform="translate(244.049 257.981)" />
            <path class="c" d="M17.223,21.734a2.562,2.562,0,0,1,2.711-2.711H70.907V13.6H19.934A8.34,8.34,0,0,0,11.8,21.734v42.3h5.423v-42.3Z"
                transform="translate(232.249 165.752)" />
            <rect class="c" width="6.507" height="5.423" transform="translate(310.748 179.352)" />
            <rect class="c" width="7.049" height="5.423" transform="translate(322.136 179.352)" />
            <rect class="c" width="7.049" height="5.423" transform="translate(597.606 179.352)" />
            <path class="c" d="M119.528,21.734V79.756h5.423V21.734a8.34,8.34,0,0,0-8.134-8.134H79.4v5.423h37.416A2.562,2.562,0,0,1,119.528,21.734Z"
                transform="translate(531.221 165.752)" />
            <rect class="c" width="5.423" height="5.965" transform="translate(650.748 257.981)" />
            <rect class="c" width="5.423" height="125.263" transform="translate(650.748 276.96)" />
            <path class="c" d="M119.97,96.945a2.562,2.562,0,0,1-2.711,2.711H79.3v5.423h37.959a8.34,8.34,0,0,0,8.134-8.134V86.1H119.97Z"
                transform="translate(530.779 486.395)" />
            <rect class="c" width="243.477" height="5.423" transform="translate(355.756 586.051)" />
            <rect class="c" width="14.099" height="5.423" transform="translate(321.051 586.051)" />
            <rect class="c" width="11.388" height="5.423" transform="translate(300.445 586.051)" />
            <rect class="c" width="10.845" height="5.423" transform="translate(285.804 586.051)" />
            <path class="c" d="M17.223,98.272V85.8H11.8V98.272a8.34,8.34,0,0,0,8.134,8.134H39.456v-5.423H19.934A2.9,2.9,0,0,1,17.223,98.272Z"
                transform="translate(232.249 485.068)" />
            <path class="d" d="M26.6,43.478V68.965a48.151,48.151,0,0,0,42.839,47.719v5.965a89.736,89.736,0,0,0,84.593,89.474v8.134H139.391V280.99h14.641v10.845a78.284,78.284,0,0,0-69.41,55.853l-2.169,7.049H235.914l-2.169-7.049c-8.676-30.367-36.874-52.6-68.868-54.769V282.075h14.641V220.8H164.878v-8.134a89.736,89.736,0,0,0,84.593-89.474v-6.507c23.86-2.711,42.839-23.317,42.839-47.719V43.478H249.471V10.4H69.439V43.478Zm194.673,301.5H97.094a67.656,67.656,0,0,1,61.818-41.212C186.568,303.766,210.97,320.033,221.273,344.978ZM37.445,68.965V54.323H69.439v51.515A37.39,37.39,0,0,1,37.445,68.965Zm131.228,162.68v39.043H149.694V231.644ZM280.922,54.323V68.965a37.39,37.39,0,0,1-31.994,36.874V54.323ZM80.284,21.245h157.8V123.191a79.171,79.171,0,1,1-158.341,0V21.245Z"
                transform="translate(297.705 151.6)" />
            <path class="c" d="M311.457,104.584V50.9H273.5V61.745h27.113V115.43H428.044v86.22H21.345V144.17H148.778V61.745h31.451V50.9h-42.3v82.424H10.5V212.5H438.89V104.584Z"
                transform="translate(226.5 330.717)" />
            <path class="d" d="M67.264,83.1A68.372,68.372,0,0,0,131.251,38.1l-10.3-3.8A57.255,57.255,0,0,1,67.264,72.259a57.415,57.415,0,0,1-16.81-2.711L47.2,79.85A64.711,64.711,0,0,0,67.264,83.1Z"
                transform="translate(388.811 257.301)" />
            <path class="d" d="M48.945,25.245H89.073V14.4H38.1V31.21H48.945Z" transform="translate(348.565 169.291)" />
        </g> 
        <path class="d" d="M-728,2147.692s177.886-87.312,329.114,0c4.06,8.12,0,97.438,0,97.438H-728Z" transform="translate(648 -53)" />
        <path class="d" d="M-728,2147.692s177.886-87.312,329.114,0c4.06,8.12,0,97.438,0,97.438H-728Z" transform="translate(898 -53)" />
        <path class="d" d="M-728,2203.856s435.35-213.683,805.46,0c9.936,19.873,0,238.466,0,238.466H-728Z" transform="translate(1601 -151)" />
        <path class="d" d="M-728,2165.974s261.7-128.448,484.175,0c5.973,11.946,0,143.346,0,143.346H-728Z" transform="translate(2337.088 -93)" />
        <path class="d" d="M-728,2170.672s283.231-139.018,524.018,0c6.464,12.929,0,155.142,0,155.142H-728Z" transform="translate(1161 -93)" />
        <path class="d" d="M-728,2147.692s177.886-87.312,329.114,0c4.06,8.12,0,97.438,0,97.438H-728Z" transform="translate(2114 -53)" />
        <g transform="translate(-638 1181)">
            <g transform="translate(1294.339 204.478) rotate(-90)">
                <path class="c" d="M16.446,32.9h0A16.507,16.507,0,0,1,0,16.445,16.436,16.436,0,0,1,16.444,0h0a16.45,16.45,0,1,1,0,32.9Zm0-24.284a7.835,7.835,0,1,0,7.838,7.83,7.762,7.762,0,0,0-7.838-7.83Z" />
            </g>
            <g transform="translate(1256.584 226.64) rotate(-90)">
                <path class="c" d="M4.308,30.035A4.314,4.314,0,0,1,0,25.728V4.308a4.308,4.308,0,1,1,8.615,0v21.42A4.307,4.307,0,0,1,4.308,30.035Z" />
            </g>
            <g transform="translate(1267.267 237.312) rotate(-90)">
                <path class="c" d="M25.7,8.6H4.307a4.3,4.3,0,1,1,0-8.6H25.7a4.3,4.3,0,1,1,0,8.6Z" />
            </g>
        </g>
        <g transform="translate(1748.584 1331.579)">
            <g transform="translate(32.9 32.834) rotate(90)">
                <path class="c" d="M16.446,32.9h0A16.507,16.507,0,0,1,0,16.446,16.436,16.436,0,0,1,16.444,0h0a16.45,16.45,0,1,1,0,32.9Zm0-24.284a7.835,7.835,0,1,0,7.838,7.83,7.762,7.762,0,0,0-7.838-7.83Z" />
            </g>
            <g transform="translate(70.655 10.672) rotate(90)">
                <path class="c" d="M4.308,30.035A4.314,4.314,0,0,1,0,25.728V4.308a4.308,4.308,0,1,1,8.615,0v21.42A4.307,4.307,0,0,1,4.308,30.035Z"
                    transform="translate(0 0)" />
            </g>
            <g transform="translate(59.972 0) rotate(90)">
                <path class="c" d="M25.7,8.6H4.308a4.3,4.3,0,1,1,0-8.6H25.7a4.3,4.3,0,1,1,0,8.6Z" transform="translate(0 0)" />
            </g>
        </g>
        <g transform="translate(85.584 1656.579)">
            <g transform="translate(0 32.899) rotate(-90)">
                <path class="c" d="M16.446,0h0A16.507,16.507,0,0,0,0,16.454,16.436,16.436,0,0,0,16.444,32.9h0a16.45,16.45,0,1,0,0-32.9Zm0,24.284a7.835,7.835,0,1,1,7.838-7.83,7.762,7.762,0,0,1-7.838,7.83Z" />
            </g>
            <g transform="translate(40.62 55.061) rotate(-90)">
                <path class="c" d="M4.308,0A4.314,4.314,0,0,0,0,4.308v21.42a4.308,4.308,0,1,0,8.615,0V4.308A4.307,4.307,0,0,0,4.308,0Z" />
            </g>
            <g transform="translate(51.369 65.733) rotate(-90)">
                <path class="c" d="M25.7,0H4.308a4.3,4.3,0,1,0,0,8.6H25.7a4.3,4.3,0,1,0,0-8.6Z" transform="translate(0)" />
            </g>
        </g>
    </g>
</svg>