<?xml version="1.0" standalone="no"?><!-- Generator: Gravit.io --><svg xmlns="http://www.w3.org/2000/svg" xmlns:xlink="http://www.w3.org/1999/xlink" style="isolation:isolate" viewBox="0 0 100 100" width="100" height="100"><defs><clipPath id="_clipPath_7Cs01vvbqR7rrymWgCDzyaD9F0gTI8Xi"><rect width="100" height="100"/></clipPath></defs><g clip-path="url(#_clipPath_7Cs01vvbqR7rrymWgCDzyaD9F0gTI8Xi)"><rect x="0" y="0" width="100" height="100" transform="matrix(1,0,0,1,0,0)" fill="rgb(255,178,15)"/><path d=" M 28.24 31.42 L 26.59 27.34 L 17.71 27.34 L 16.06 31.42 L 10 31.42 L 19.27 10.42 L 25.12 10.42 L 34.42 31.42 L 28.24 31.42 Z  M 19.45 22.96 L 24.85 22.96 L 22.15 16.24 L 19.45 22.96 Z  M 52.24 20.47 L 52.24 20.47 Q 54.04 21.1 55.06 22.435 L 55.06 22.435 L 55.06 22.435 Q 56.08 23.77 56.08 25.66 L 56.08 25.66 L 56.08 25.66 Q 56.08 28.42 53.86 29.92 L 53.86 29.92 L 53.86 29.92 Q 51.64 31.42 47.44 31.42 L 47.44 31.42 L 36.1 31.42 L 36.1 10.42 L 46.84 10.42 L 46.84 10.42 Q 50.86 10.42 52.96 11.905 L 52.96 11.905 L 52.96 11.905 Q 55.06 13.39 55.06 15.91 L 55.06 15.91 L 55.06 15.91 Q 55.06 17.41 54.325 18.595 L 54.325 18.595 L 54.325 18.595 Q 53.59 19.78 52.24 20.47 L 52.24 20.47 Z  M 46.06 14.71 L 41.98 14.71 L 41.98 18.76 L 46.06 18.76 L 46.06 18.76 Q 49.06 18.76 49.06 16.72 L 49.06 16.72 L 49.06 16.72 Q 49.06 14.71 46.06 14.71 L 46.06 14.71 Z  M 46.96 27.13 L 46.96 27.13 Q 50.08 27.13 50.08 25 L 50.08 25 L 50.08 25 Q 50.08 22.87 46.96 22.87 L 46.96 22.87 L 41.98 22.87 L 41.98 27.13 L 46.96 27.13 Z  M 68.83 18.04 L 68.83 18.04 Q 70.81 18.04 72.46 18.865 L 72.46 18.865 L 72.46 18.865 Q 74.11 19.69 75.085 21.205 L 75.085 21.205 L 75.085 21.205 Q 76.06 22.72 76.06 24.67 L 76.06 24.67 L 76.06 24.67 Q 76.06 26.8 74.965 28.435 L 74.965 28.435 L 74.965 28.435 Q 73.87 30.07 71.995 30.955 L 71.995 30.955 L 71.995 30.955 Q 70.12 31.84 67.81 31.84 L 67.81 31.84 L 67.81 31.84 Q 63.31 31.84 60.7 29.17 L 60.7 29.17 L 60.7 29.17 Q 58.09 26.5 58.09 21.49 L 58.09 21.49 L 58.09 21.49 Q 58.09 17.89 59.485 15.295 L 59.485 15.295 L 59.485 15.295 Q 60.88 12.7 63.4 11.35 L 63.4 11.35 L 63.4 11.35 Q 65.92 10 69.25 10 L 69.25 10 L 69.25 10 Q 71.05 10 72.67 10.39 L 72.67 10.39 L 72.67 10.39 Q 74.29 10.78 75.43 11.53 L 75.43 11.53 L 73.27 15.79 L 73.27 15.79 Q 71.74 14.71 69.4 14.71 L 69.4 14.71 L 69.4 14.71 Q 67.12 14.71 65.71 15.97 L 65.71 15.97 L 65.71 15.97 Q 64.3 17.23 64.09 19.6 L 64.09 19.6 L 64.09 19.6 Q 65.89 18.04 68.83 18.04 L 68.83 18.04 Z  M 67.45 27.61 L 67.45 27.61 Q 68.71 27.61 69.505 26.89 L 69.505 26.89 L 69.505 26.89 Q 70.3 26.17 70.3 24.94 L 70.3 24.94 L 70.3 24.94 Q 70.3 23.74 69.505 23.02 L 69.505 23.02 L 69.505 23.02 Q 68.71 22.3 67.42 22.3 L 67.42 22.3 L 67.42 22.3 Q 66.13 22.3 65.32 23.035 L 65.32 23.035 L 65.32 23.035 Q 64.51 23.77 64.51 24.97 L 64.51 24.97 L 64.51 24.97 Q 64.51 26.14 65.305 26.875 L 65.305 26.875 L 65.305 26.875 Q 66.1 27.61 67.45 27.61 L 67.45 27.61 Z " fill-rule="evenodd" fill="rgb(22,50,79)"/></g></svg>