<svg xmlns="http://www.w3.org/2000/svg" width="100" height="103.459" viewBox="0 0 100 103.459"><defs><style>.a{fill:#ffb20f;}</style></defs><g transform="translate(-7.797 -4.981)"><path class="a" d="M83.88,101.051H15.406V12.372H83.88v40.6L91.487,39.73V12.538a7.268,7.268,0,0,0-7.316-7.557H15.088A7.247,7.247,0,0,0,7.8,12.538v88.806c0,4.184,2.985,7.1,7.291,7.1H84.171c4.306,0,7.316-2.911,7.316-7.1V77.017L83.88,90.258Z" transform="translate(0)"/><rect class="a" width="35.888" height="4.601" transform="translate(19.76 24.115)"/><rect class="a" width="35.888" height="4.601" transform="translate(19.76 48.564)"/><rect class="a" width="46.93" height="4.602" transform="translate(19.76 36.871)"/><rect class="a" width="46.93" height="4.602" transform="translate(19.76 61.32)"/><rect class="a" width="35.888" height="4.603" transform="translate(19.76 73.012)"/><path class="a" d="M88.5,28.171l-1.745,3.038L86,32.521l6.469,3.713.751-1.31,1.745-3.038Z" transform="translate(12.835 3.75)"/><path class="a" d="M61.169,74.541v7.736l6.647-4.022L90.711,38.638l-6.468-3.714Z" transform="translate(12.835 13.279)"/><path class="a" d="M28.578,76.02l-2.031-2.03-2.379,2.377L21.789,73.99l-2.031,2.03,2.38,2.377-2.38,2.383,2.031,2.032,2.379-2.381,2.379,2.381,2.031-2.032L26.2,78.4Z" transform="translate(0 13.279)"/><g transform="translate(35.392 93.694)"><rect class="a" width="25.009" height="1.862"/></g></g></svg>