<svg xmlns="http://www.w3.org/2000/svg" width="101.957" height="90.722" viewBox="0 0 101.957 90.722"><defs><style>.a{fill:#ca0030;}.b{fill:#fff;}</style></defs><g transform="translate(-445.249 -578.387)"><path class="a" d="M484.56,668.583,445.99,630.015a1.032,1.032,0,0,1,0-1.494l41.743-41.743a28.381,28.381,0,0,1,40.276,0h0a28.383,28.383,0,0,1,0,40.276l-41.743,41.529A1.3,1.3,0,0,1,484.56,668.583Z" transform="translate(10.814 0.205)"/><path class="a" d="M535.65,630.22l-38.569,38.568a1.032,1.032,0,0,1-1.494,0l-41.956-41.743a28.383,28.383,0,0,1,0-40.276h0a28.383,28.383,0,0,1,40.276,0l41.743,41.743A1.3,1.3,0,0,1,535.65,630.22Z" transform="translate(0)"/><path class="b" d="M461.173,578.784a15.545,15.545,0,0,0-15.523,15.551,3.347,3.347,0,0,0,6.694,0,8.688,8.688,0,0,1,1.947-5.308l1.6-1.6a8.664,8.664,0,0,1,5.281-1.947,3.348,3.348,0,1,0,0-6.7Z" transform="translate(10.275 10.225)"/></g></svg>