<svg xmlns="http://www.w3.org/2000/svg" width="100" height="95.5" viewBox="0 0 100 95.5"><defs><style>.a{fill:#ffb20f;}</style></defs><g transform="translate(-1646 -28)"><g transform="translate(1646 28)"><path class="a" d="M54.29,92.8A20.867,20.867,0,0,0,75.135,71.953V44.765H33.446V71.953A20.868,20.868,0,0,0,54.29,92.8ZM47.352,57.881l6.937-10.124,6.937,10.124L73,61.349l-7.484,9.728.338,12.267L54.289,79.232,42.726,83.344l.338-12.268L35.58,61.348Z" transform="translate(-4.29 -5.455)"/><path class="a" d="M26.447,73.112c0,15.992,11.911,29,26.553,29s26.552-13.01,26.552-29V37.766h-53.1ZM30.6,42.3H75.4V73.112c0,13.492-10.05,24.47-22.4,24.47S30.6,86.605,30.6,73.112V42.3Z" transform="translate(-3 -6.614)"/><path class="a" d="M73.11,20.049l-2.434,4.934-5.444.791,3.939,3.839-.93,5.423,4.868-2.561,4.87,2.561-.93-5.423,3.939-3.839-5.443-.791Z" transform="translate(-0.352 -5.703)"/><path class="a" d="M57.014,14.917,53.12,7.025l-3.9,7.892-8.708,1.265,6.3,6.142L45.331,31,53.12,26.9,60.908,31l-1.487-8.673,6.3-6.142Z" transform="translate(-3.12 -7.025)"/><path class="a" d="M34.222,24.983l-2.436-4.934-2.434,4.934-5.444.791,3.94,3.839-.93,5.423,4.868-2.561,4.87,2.561-.929-5.423,3.938-3.839Z" transform="translate(-4.546 -5.703)"/><path class="a" d="M45.94,75.532l7-2.487,7,2.487-.2-7.424,4.528-5.885-7.123-2.1L52.938,54l-4.2,6.126-7.123,2.1,4.528,5.886Z" transform="translate(-2.938 -2.506)"/><path class="a" d="M81.195,46.665V71.639c0,.068,0,.134,0,.2H98.835L91.843,59.253l6.993-12.588Z" transform="translate(1.164 -3.345)"/><path class="a" d="M6.33,71.839H24.714c0-.068,0-.134,0-.2V46.665H6.33l6.993,12.588Z" transform="translate(-6.33 -3.345)"/></g></g></svg>