<svg xmlns="http://www.w3.org/2000/svg" width="747" height="142.264" viewBox="0 0 747 142.264"><defs><style>.a,.b,.c{fill:#fff;}.b,.c{font-size:35px;}.b{font-family:Montserrat-SemiBold, Montserrat;font-weight:600;letter-spacing:0.08em;}.c{font-family:Montserrat-Medium, Montserrat;font-weight:500;}</style></defs><g transform="translate(-80 -5093)"><g transform="translate(1 4422)"><g transform="translate(-24 35)"><g transform="translate(1247.47 1116.76)"><path class="a" d="M-1069.257-401.388c0,2.656.015,5.174-.024,7.691a1.007,1.007,0,0,1-.525.72q-8.748,3.785-17.519,7.519c-7.154,3.062-14.322,6.09-21.454,9.2a25.577,25.577,0,0,0-7.326,4.606,13.3,13.3,0,0,0-4.134,8.018c-.367,2.565-.459,5.169-.652,7.758-.095,1.265-.151,2.532-.206,3.8a11.422,11.422,0,0,0,.089,1.191c.574-.317.99-.5,1.36-.756a208.775,208.775,0,0,1,19.5-11.922c4.964-2.651,9.949-5.278,15.036-7.68,6.611-3.122,13.328-6.023,20.01-9,5.933-2.641,11.887-5.236,17.819-7.881,3.909-1.744,7.794-3.541,11.832-5.38,0,2.826.015,5.539-.026,8.251a1.06,1.06,0,0,1-.583.7c-3.309,1.516-6.618,3.032-9.956,4.482-3.615,1.571-7.261,3.068-10.89,4.605q-5.538,2.346-11.069,4.709c-3.029,1.3-6.073,2.57-9.065,3.95-4.456,2.055-8.968,4.018-13.282,6.342-6.259,3.371-12.419,6.939-18.514,10.6a106.149,106.149,0,0,0-10.21,6.923,43.385,43.385,0,0,0-13.01,16.014c-.822,1.75-1.213,3.246-.067,5a46.815,46.815,0,0,1,2.286,4.459c.476-1.088.815-1.879,1.167-2.664a38.242,38.242,0,0,1,6.45-9.636c5.723-6.469,12.663-11.4,19.881-16.007a232.372,232.372,0,0,1,25-13.487c6.107-2.918,12.328-5.6,18.509-8.359,4.626-2.066,9.274-4.08,13.9-6.138,2.985-1.327,5.952-2.692,8.929-4.037a3.984,3.984,0,0,1,.468-.135v8.97c-2.7,1.293-5.447,2.641-8.223,3.925-2.561,1.185-5.153,2.305-7.734,3.448-4.726,2.093-9.461,4.167-14.179,6.276q-4.055,1.813-8.069,3.718c-3.42,1.617-6.861,3.2-10.224,4.927A140.611,140.611,0,0,0-1102.184-336c-3.064,2.212-5.974,4.641-8.909,7.028a43.068,43.068,0,0,0-8.534,9.784,31.676,31.676,0,0,0-4.145,8.717,1.38,1.38,0,0,0,.258,1.112c1.319,1.476,2.7,2.9,4.186,4.472.619-1.344,1.1-2.419,1.606-3.481a48.785,48.785,0,0,1,7.609-11.33,70.831,70.831,0,0,1,9.975-9.164,110.615,110.615,0,0,1,15.657-9.967c4.212-2.241,8.441-4.464,12.763-6.478,6.257-2.916,12.61-5.625,18.913-8.443,3.7-1.652,7.376-3.342,11.062-5.017,2.037-.926,4.073-1.857,6.216-2.834v8.63c-2.527,1.165-5.1,2.387-7.711,3.545-3.106,1.379-6.246,2.682-9.354,4.056-5.133,2.269-10.289,4.489-15.364,6.882-4.066,1.917-8.092,3.943-12.016,6.133-3.947,2.2-7.8,4.582-11.6,7.037a64.025,64.025,0,0,0-12.442,10.869,44.437,44.437,0,0,0-7.172,10.636c-.677,1.4-1.256,2.852-1.886,4.295l5.849,4.168c.679-1.375,1.315-2.686,1.971-3.986a53.849,53.849,0,0,1,7.576-11.238,51.955,51.955,0,0,1,11.122-9.662q6.357-4.065,12.97-7.724c3.845-2.128,7.8-4.084,11.787-5.928,6.267-2.894,12.608-5.629,18.917-8.433,2.419-1.075,4.836-2.156,7.3-3.255,0,1.5.037,2.924-.012,4.341-.038,1.126-.152,2.252-.3,3.369a1.09,1.09,0,0,1-.509.748c-3.88,1.733-7.776,3.43-11.667,5.138-2.895,1.271-5.8,2.512-8.677,3.83-3.466,1.591-6.954,3.149-10.336,4.907-3.924,2.04-7.8,4.181-11.587,6.469a64.889,64.889,0,0,0-7.6,5.323,39.487,39.487,0,0,0-13.268,19.179c-.437,1.435-.46,1.427.863,2.087,1.4.7,2.8,1.4,4.271,2.136.556-1.281,1.067-2.5,1.608-3.7a42.191,42.191,0,0,1,6.717-10.314,50.234,50.234,0,0,1,13.256-10.51c4.344-2.493,8.79-4.83,13.3-7,5.425-2.607,10.971-4.96,16.461-7.431,2.138-.962,4.266-1.944,6.674-3.042-.322,1.331-.523,2.437-.864,3.5a35.8,35.8,0,0,1-1.511,4,3.007,3.007,0,0,1-1.271,1.347c-6.646,3.342-13.336,6.6-19.976,9.949a99.1,99.1,0,0,0-15.977,9.63,30.9,30.9,0,0,0-10.654,13.976,2.4,2.4,0,0,0,0,.451c.983-.531,1.892-.978,2.758-1.5,4.169-2.5,8.342-4.993,12.483-7.539,3.592-2.208,7.133-4.5,10.716-6.723q7.586-4.706,15.2-9.362a8.652,8.652,0,0,1,2.02-.949c-.371.6-.729,1.21-1.114,1.8a77.891,77.891,0,0,1-7.831,10.094,81.528,81.528,0,0,1-16.018,13.166,127.607,127.607,0,0,1-19.992,10.4c-1.2.5-2.218-.145-3.2-.591-3.936-1.791-7.9-3.533-11.724-5.55a104.216,104.216,0,0,1-15.8-10.284,85.148,85.148,0,0,1-9.967-9.241,63.4,63.4,0,0,1-8.688-11.96,50.022,50.022,0,0,1-5.083-12.633,45.738,45.738,0,0,1-1.323-9.067c-.249-6.687-.365-13.388-.214-20.076a63.388,63.388,0,0,1,3.23-20.086,29.4,29.4,0,0,1,8.588-12.783,31.041,31.041,0,0,1,8.6-5.055c3.586-1.452,7.167-2.931,10.817-4.21a34.1,34.1,0,0,1,13.855-2.2c5.09.379,9.42,2.212,11.906,7.039.339.657.714.606,1.219.39q3.751-1.6,7.5-3.215C-1075.582-398.657-1072.473-400-1069.257-401.388Zm-24.7,10.52a10.779,10.779,0,0,0-1.215-1.581,9.087,9.087,0,0,0-7.964-2.032,56.507,56.507,0,0,0-8.688,2.448,46.344,46.344,0,0,0-11.792,5.748,27.974,27.974,0,0,0-8.252,9.273,39.149,39.149,0,0,0-4.52,18.042c-.189,8.276.08,16.563.156,24.845a1.248,1.248,0,0,0,.115.316,2.076,2.076,0,0,0,.2-.274,38.612,38.612,0,0,1,5.62-8.38,3.977,3.977,0,0,0,1.135-2.048c.171-4.3.132-8.615.281-12.92a72.127,72.127,0,0,1,.62-7.452,19.614,19.614,0,0,1,9.169-14.308c4.8-3.124,10.136-5.116,15.326-7.419C-1100.559-388.028-1097.34-389.4-1093.954-390.868Z" transform="translate(0 -60.884)"/><path class="a" d="M-1140.45-467.048c23.67-10.638,48.52-13.294,74.219-10.541v8.037a144.059,144.059,0,0,0-38.11.3,112.909,112.909,0,0,0-36.109,11.212Z" transform="translate(-3.092 -1.66)"/><path class="a" d="M-788.747-480.758l4.759,7.385,4.782-7.387,4.8,3.022-4.3,6.726h7.946v5.746h-7.992l4.346,6.817-4.791,3.027-4.779-7.4-4.791,7.408-4.764-3.057,4.318-6.752H-797.3V-470.9h8.107l-2.647-4.214a9.151,9.151,0,0,0-.991-1.54c-.846-.88-.447-1.354.4-1.846C-791.2-479.208-790.007-479.98-788.747-480.758Z" transform="translate(-267.024)"/></g></g></g><text class="b" transform="translate(219 5111)"><tspan x="0" y="34">RAMAIAH</tspan></text><text class="c" transform="translate(219 5187)"><tspan x="0" y="0">Institute of Technology</tspan></text></g></svg>