<svg xmlns="http://www.w3.org/2000/svg" width="100" height="100.066" viewBox="0 0 100 100.066"><defs><style>.a{fill:#ffb20f;fill-rule:evenodd;}</style></defs><path class="a" d="M27.726,0A25.824,25.824,0,1,1,1.9,25.824,25.837,25.837,0,0,1,27.726,0Z" transform="translate(22.274)"/><path class="a" d="M0,50.6c.68-22.254,11.638-39.734,33.7-46.471a2.1,2.1,0,0,1,1.7.189,29.664,29.664,0,0,0,29.186,0,2.092,2.092,0,0,1,1.7-.189C88.362,10.872,99.319,28.35,100,50.6a2.154,2.154,0,0,1-2.163,2.23H2.164A2.154,2.154,0,0,1,0,50.6Z" transform="translate(0 47.231)"/></svg>